<svg width="225" height="67" viewBox="0 0 225 67" fill="none" xmlns="http://www.w3.org/2000/svg">
<path d="M4.184 26.384C3.39467 26.384 2.73333 26.192 2.2 25.808C1.688 25.4027 1.304 24.88 1.048 24.24C0.792 23.6 0.664 22.9173 0.664 22.192C0.664 21.3813 0.824 20.4533 1.144 19.408C1.464 18.3627 1.90133 17.2853 2.456 16.176C3.032 15.0667 3.69333 13.9893 4.44 12.944C5.18667 11.8987 5.98667 10.96 6.84 10.128C7.71467 9.27467 8.61067 8.60267 9.528 8.112C10.4453 7.62133 11.352 7.376 12.248 7.376C13.3787 7.376 14.1573 7.728 14.584 8.432C15.032 9.11467 15.256 9.95733 15.256 10.96C15.256 11.8133 15.1173 12.784 14.84 13.872C14.5627 14.9387 14.168 16.0587 13.656 17.232C13.1653 18.384 12.5787 19.504 11.896 20.592C11.2133 21.68 10.456 22.6613 9.624 23.536C8.81333 24.4107 7.94933 25.104 7.032 25.616C6.11467 26.128 5.16533 26.384 4.184 26.384ZM4.568 25.744C5.29333 25.744 6.02933 25.4667 6.776 24.912C7.52267 24.336 8.248 23.5787 8.952 22.64C9.656 21.68 10.3067 20.6347 10.904 19.504C11.5227 18.352 12.0667 17.2 12.536 16.048C13.0053 14.8747 13.368 13.7973 13.624 12.816C13.88 11.8133 14.008 10.992 14.008 10.352C14.008 9.73333 13.8907 9.18933 13.656 8.72C13.4213 8.22933 12.9627 7.984 12.28 7.984C11.576 7.984 10.8507 8.272 10.104 8.848C9.35733 9.424 8.62133 10.192 7.896 11.152C7.192 12.0907 6.52 13.136 5.88 14.288C5.24 15.44 4.67467 16.592 4.184 17.744C3.69333 18.896 3.30933 19.9627 3.032 20.944C2.75467 21.904 2.616 22.6827 2.616 23.28C2.616 23.9413 2.75467 24.5173 3.032 25.008C3.30933 25.4987 3.82133 25.744 4.568 25.744ZM16.1483 26.16L15.9243 26.096L15.8923 25.968C15.8923 25.7973 16.0949 25.4133 16.5003 24.816C16.9056 24.1973 17.4496 23.4507 18.1323 22.576C18.8149 21.68 19.5616 20.72 20.3723 19.696C21.2043 18.6507 22.0363 17.616 22.8683 16.592C23.7216 15.5467 24.5216 14.576 25.2683 13.68C26.0149 12.7627 26.6549 11.9947 27.1883 11.376C27.7216 10.736 28.0736 10.3093 28.2443 10.096C27.3909 10.0533 26.5376 10.0213 25.6843 10C24.8523 9.97867 23.9989 9.968 23.1243 9.968C22.4203 9.968 21.8869 10.0853 21.5243 10.32C21.1829 10.5333 20.9269 10.8 20.7563 11.12C20.5856 11.4187 20.4363 11.6853 20.3083 11.92C20.2016 12.1547 20.0309 12.272 19.7963 12.272L19.7003 12.24L19.6683 12.016C19.9243 11.1627 20.1696 10.4693 20.4043 9.936C20.6389 9.38133 20.9269 8.95467 21.2683 8.656C21.6096 8.35733 22.0683 8.15466 22.6443 8.048C23.2416 7.92 24.0203 7.856 24.9803 7.856C25.7269 7.856 26.4843 7.86667 27.2523 7.888C28.0416 7.90933 28.8309 7.97333 29.6203 8.08C29.6843 8.03733 29.7696 7.97333 29.8763 7.888C30.0043 7.78133 30.1109 7.728 30.1963 7.728L30.3883 7.952L30.3243 8.144C30.0256 8.592 29.8123 8.92267 29.6843 9.136C29.5563 9.328 29.4283 9.50933 29.3003 9.68C29.1936 9.82933 29.0123 10.0747 28.7563 10.416C28.5216 10.736 28.1483 11.2373 27.6363 11.92C27.1243 12.6027 26.3989 13.5733 25.4603 14.832C24.5216 16.0907 23.5936 17.4773 22.6763 18.992C21.7589 20.5067 20.8629 21.9253 19.9883 23.248C19.9456 23.312 19.8389 23.4827 19.6683 23.76C19.5189 24.016 19.3483 24.304 19.1562 24.624C18.9856 24.944 18.8256 25.232 18.6763 25.488C18.5269 25.7227 18.4416 25.8507 18.4203 25.872C18.1856 26.0213 17.8229 26.096 17.3323 26.096C16.8629 26.1173 16.4683 26.1387 16.1483 26.16ZM48.0203 26C47.4443 26 46.9643 25.712 46.5803 25.136C46.4736 24.9653 46.3776 24.7413 46.2923 24.464C46.2069 24.1867 46.1643 23.8773 46.1643 23.536C46.1643 23.344 46.1749 23.152 46.1963 22.96C46.2176 22.7467 46.2603 22.5333 46.3243 22.32C46.0256 22.7893 45.6736 23.312 45.2683 23.888C44.8843 24.4427 44.4363 24.9333 43.9243 25.36C43.4336 25.7653 42.8789 25.968 42.2603 25.968C42.0469 25.968 41.8229 25.936 41.5883 25.872C41.0123 25.7013 40.5963 25.4027 40.3403 24.976C40.1056 24.5493 39.9883 24.0373 39.9883 23.44C39.9883 22.7787 40.1163 22.0533 40.3723 21.264C40.6496 20.4747 40.9909 19.7067 41.3963 18.96C41.8229 18.2133 42.2603 17.5733 42.7083 17.04C43.3483 16.2933 44.0843 15.696 44.9163 15.248C45.7483 14.8 46.5909 14.576 47.4443 14.576C48.2123 14.576 48.9376 14.7787 49.6203 15.184C49.9403 14.5867 50.2816 13.9253 50.6443 13.2C51.0069 12.4533 51.3696 11.7173 51.7323 10.992C52.0949 10.2667 52.4149 9.60533 52.6923 9.008C52.9696 8.38933 53.1829 7.92 53.3323 7.6C53.6523 6.85333 53.9509 6.384 54.2283 6.192C54.5269 5.97867 54.8789 5.872 55.2843 5.872C55.5189 5.872 55.7749 5.904 56.0522 5.968C56.3509 6.01067 56.6389 6.02133 56.9163 6C56.7883 6.128 56.5216 6.50133 56.1163 7.12C55.7323 7.71733 55.2736 8.48533 54.7403 9.424C54.2069 10.3627 53.6309 11.3973 53.0123 12.528C52.4149 13.6373 51.8176 14.768 51.2203 15.92C50.6443 17.0507 50.1003 18.128 49.5883 19.152C49.0976 20.1547 48.7029 21.0187 48.4043 21.744C48.3189 21.9147 48.1909 22.2667 48.0203 22.8C47.8709 23.312 47.7963 23.76 47.7963 24.144C47.7963 24.4213 47.8603 24.6667 47.9883 24.88C48.1163 25.072 48.3296 25.168 48.6283 25.168C49.0336 25.168 49.4389 24.9653 49.8443 24.56C50.2709 24.1333 50.6763 23.6213 51.0603 23.024C51.4443 22.4053 51.7856 21.808 52.0843 21.232C52.3829 20.6347 52.6069 20.1653 52.7563 19.824C52.8629 19.5893 52.9909 19.472 53.1403 19.472C53.2683 19.472 53.3323 19.568 53.3323 19.76C53.3323 19.7813 53.3323 19.824 53.3323 19.888C53.3323 19.9307 53.3109 19.984 53.2683 20.048C53.0763 20.496 52.8096 21.0507 52.4683 21.712C52.1483 22.3733 51.7643 23.0347 51.3163 23.696C50.8683 24.3573 50.3669 24.912 49.8123 25.36C49.2576 25.7867 48.6603 26 48.0203 26ZM42.4843 25.04C42.7829 25.04 43.1563 24.88 43.6043 24.56C44.0523 24.2187 44.5323 23.6853 45.0443 22.96C45.6416 22.1067 46.3243 21.04 47.0923 19.76C47.8603 18.48 48.6176 17.1253 49.3643 15.696C49.0869 15.44 48.7669 15.312 48.4043 15.312C47.8069 15.312 47.1349 15.5893 46.3883 16.144C45.6629 16.6987 44.9483 17.4027 44.2443 18.256C43.5616 19.1093 42.9856 19.9733 42.5163 20.848C42.1963 21.4453 41.9616 21.9893 41.8123 22.48C41.6843 22.9707 41.6203 23.3973 41.6203 23.76C41.6203 24.6133 41.9083 25.04 42.4843 25.04ZM55.0328 26.128C54.2434 26.128 53.5288 25.872 52.8888 25.36C52.2701 24.848 51.9608 24.0693 51.9608 23.024C51.9608 22.064 52.1954 21.04 52.6648 19.952C53.1341 18.8427 53.7314 17.872 54.4568 17.04C55.0754 16.3147 55.7688 15.7173 56.5368 15.248C57.3048 14.7787 58.0301 14.544 58.7128 14.544C59.1821 14.544 59.5874 14.672 59.9288 14.928C60.2914 15.2053 60.4728 15.6 60.4728 16.112C60.4728 16.6453 60.2701 17.232 59.8648 17.872C59.4594 18.512 58.8834 19.1093 58.1368 19.664C57.8168 19.8987 57.4114 20.1227 56.9208 20.336C56.4301 20.5493 55.9394 20.7307 55.4488 20.88C54.9581 21.008 54.5528 21.072 54.2328 21.072C54.1261 21.328 54.0194 21.6693 53.9128 22.096C53.8274 22.5227 53.7848 22.96 53.7848 23.408C53.7848 23.9413 53.8914 24.4213 54.1048 24.848C54.3181 25.2747 54.7128 25.488 55.2888 25.488C55.9928 25.488 56.6328 25.2853 57.2088 24.88C57.7848 24.4747 58.2968 23.9733 58.7448 23.376C59.1928 22.7573 59.5661 22.1387 59.8648 21.52C60.1848 20.9013 60.4408 20.3787 60.6328 19.952C60.7608 19.6533 60.9314 19.504 61.1448 19.504C61.2514 19.504 61.3048 19.5573 61.3048 19.664C61.3048 19.7493 61.2728 19.856 61.2088 19.984C60.9101 20.624 60.5901 21.3067 60.2488 22.032C59.9074 22.736 59.5021 23.408 59.0328 24.048C58.5634 24.6667 57.9981 25.168 57.3368 25.552C56.6968 25.936 55.9288 26.128 55.0328 26.128ZM54.4568 20.496C54.7554 20.496 55.2568 20.3893 55.9608 20.176C56.6648 19.9413 57.3048 19.5787 57.8808 19.088C58.4354 18.5973 58.8621 18.064 59.1608 17.488C59.4594 16.8907 59.6088 16.3893 59.6088 15.984C59.6088 15.5147 59.4381 15.28 59.0968 15.28C58.8408 15.28 58.4888 15.4507 58.0408 15.792C57.5928 16.1333 57.0381 16.7093 56.3768 17.52C55.9714 18.032 55.5874 18.5867 55.2248 19.184C54.8621 19.7813 54.6061 20.2187 54.4568 20.496ZM75.4748 37.968C73.4908 37.968 71.7201 37.68 70.1628 37.104C68.6054 36.528 67.3788 35.6853 66.4827 34.576C65.5867 33.488 65.1387 32.1653 65.1387 30.608C65.1387 30.0107 65.2134 29.3813 65.3627 28.72C65.4907 28.08 65.7041 27.3973 66.0027 26.672C66.3014 25.968 66.7494 25.3067 67.3468 24.688C67.9441 24.0693 68.5521 23.568 69.1708 23.184C69.7894 22.8 70.2694 22.608 70.6108 22.608H70.7068C70.8988 22.608 70.9948 22.64 70.9948 22.704C70.9948 22.7467 70.9521 22.8 70.8668 22.864C70.7814 22.928 70.6854 22.9813 70.5788 23.024C70.2161 23.1733 69.7574 23.4933 69.2028 23.984C68.6481 24.4533 68.1148 25.0507 67.6028 25.776C67.1121 26.48 66.7387 27.2587 66.4827 28.112C66.2907 28.816 66.1947 29.488 66.1947 30.128C66.1947 31.28 66.4827 32.2827 67.0587 33.136C67.6348 33.9893 68.3921 34.6933 69.3307 35.248C70.2694 35.824 71.3041 36.2507 72.4348 36.528C73.5654 36.8053 74.6748 36.944 75.7628 36.944C76.1894 36.944 76.6054 36.9227 77.0108 36.88C77.4161 36.8587 77.8001 36.8053 78.1628 36.72C80.0401 36.2933 81.7574 35.5787 83.3148 34.576C84.8934 33.5947 86.3334 32.4213 87.6348 31.056C88.9361 29.6907 90.1094 28.2187 91.1548 26.64C92.2214 25.0827 93.1708 23.504 94.0028 21.904C94.8348 20.304 95.5814 18.7787 96.2428 17.328C96.9041 15.8773 97.4801 14.5973 97.9708 13.488C98.7388 11.824 99.4641 10.3307 100.147 9.008C100.851 7.664 101.459 6.53333 101.971 5.616C102.504 4.69867 102.888 4.05867 103.123 3.696C102.077 3.86667 100.915 4.144 99.6348 4.528C98.3761 4.89067 97.0961 5.37067 95.7948 5.968C94.5148 6.56533 93.3094 7.26933 92.1788 8.08C91.0694 8.89067 90.1308 9.808 89.3628 10.832C88.6161 11.856 88.1361 12.9973 87.9228 14.256C87.9014 14.448 87.8801 14.6187 87.8588 14.768C87.8588 14.9173 87.8588 15.0773 87.8588 15.248C87.8588 16.1867 88.0721 16.9653 88.4988 17.584C88.9254 18.1813 89.5334 18.48 90.3228 18.48C90.6641 18.48 91.0908 18.3947 91.6028 18.224C92.4561 17.9253 93.1068 17.5093 93.5548 16.976C94.0241 16.4427 94.3548 15.8773 94.5468 15.28C94.7388 14.6827 94.8348 14.16 94.8348 13.712C94.8348 13.1787 94.7494 12.8267 94.5788 12.656C94.4508 12.592 94.3868 12.5067 94.3868 12.4C94.3868 12.208 94.5041 12.112 94.7388 12.112C94.9308 12.112 95.1014 12.208 95.2508 12.4C95.4428 12.8693 95.5388 13.36 95.5388 13.872C95.5388 14.576 95.3574 15.28 94.9948 15.984C94.6534 16.6667 94.1841 17.2747 93.5868 17.808C93.0108 18.3413 92.3494 18.736 91.6028 18.992C91.0268 19.2053 90.4294 19.312 89.8108 19.312C88.6374 19.312 87.6561 18.928 86.8668 18.16C86.0774 17.3707 85.6828 16.3253 85.6828 15.024C85.6828 14.704 85.7148 14.3733 85.7788 14.032C86.0134 12.5387 86.5894 11.2267 87.5068 10.096C88.4241 8.944 89.5548 7.952 90.8988 7.12C92.2428 6.26667 93.6721 5.552 95.1868 4.976C96.7014 4.4 98.1948 3.94133 99.6668 3.6C101.16 3.23733 102.493 2.98133 103.667 2.832C103.773 2.68267 103.965 2.42667 104.243 2.064C104.52 1.70133 104.84 1.33867 105.203 0.975998C105.565 0.613332 105.928 0.378666 106.291 0.271999C106.525 0.207999 106.749 0.175999 106.963 0.175999C107.283 0.175999 107.549 0.261332 107.763 0.431999C107.976 0.581332 108.083 0.815999 108.083 1.136C108.083 1.79733 107.795 2.27733 107.219 2.576C106.664 2.87466 106.077 3.12 105.459 3.312C105.267 3.312 105.021 3.35467 104.723 3.44C104.424 3.52533 104.211 3.568 104.083 3.568C103.037 5.36 102.152 7.20533 101.427 9.104C100.723 11.0027 100.029 12.976 99.3468 15.024C98.6641 17.0507 97.8641 19.1413 96.9468 21.296C96.0294 23.4293 94.8348 25.6373 93.3628 27.92C92.4241 29.392 91.3254 30.704 90.0668 31.856C88.8081 33.008 87.4854 33.9893 86.0988 34.8C84.7334 35.632 83.4001 36.2933 82.0988 36.784C80.7974 37.2747 79.6134 37.5947 78.5468 37.744C78.0134 37.8293 77.4908 37.8827 76.9788 37.904C76.4668 37.9467 75.9654 37.968 75.4748 37.968ZM104.659 2.768C105.533 2.61867 106.12 2.43733 106.419 2.224C106.717 1.98933 106.867 1.776 106.867 1.584C106.867 1.47733 106.824 1.392 106.739 1.328C106.675 1.24267 106.611 1.2 106.547 1.2C106.419 1.136 106.237 1.2 106.003 1.392C105.789 1.584 105.555 1.81867 105.299 2.096C105.064 2.352 104.851 2.576 104.659 2.768ZM107.017 26.096C106.782 26.1173 106.515 26.064 106.217 25.936C105.918 25.808 105.651 25.5733 105.417 25.232C105.203 24.8907 105.097 24.4107 105.097 23.792C105.097 23.28 105.193 22.6613 105.385 21.936C105.129 22.3413 104.798 22.8427 104.393 23.44C103.987 24.016 103.55 24.528 103.081 24.976C102.675 25.36 102.291 25.6373 101.929 25.808C101.566 25.9787 101.235 26.064 100.937 26.064C100.382 26.064 99.9338 25.8187 99.5925 25.328C99.2512 24.816 99.0805 24.1547 99.0805 23.344C99.0805 22.4907 99.2938 21.52 99.7205 20.432C100.147 19.344 100.841 18.2133 101.801 17.04C102.419 16.2933 103.166 15.696 104.041 15.248C104.937 14.7787 105.811 14.544 106.665 14.544C107.155 14.544 107.625 14.6293 108.073 14.8C108.521 14.9493 108.915 15.2053 109.257 15.568C109.406 15.7173 109.481 15.888 109.481 16.08C109.481 16.208 109.427 16.3147 109.321 16.4C109.214 16.4853 109.075 16.5067 108.905 16.464C108.67 15.7173 108.169 15.344 107.401 15.344C107.038 15.344 106.622 15.4613 106.153 15.696C105.427 16.08 104.67 16.7093 103.881 17.584C103.113 18.4587 102.441 19.3653 101.865 20.304C101.779 20.432 101.641 20.6773 101.449 21.04C101.278 21.4027 101.107 21.808 100.937 22.256C100.766 22.704 100.649 23.1413 100.585 23.568C100.563 23.696 100.553 23.792 100.553 23.856C100.553 23.8987 100.553 23.9733 100.553 24.08C100.553 24.784 100.819 25.136 101.353 25.136C101.993 25.136 102.718 24.6667 103.529 23.728C104.083 23.0453 104.585 22.3307 105.033 21.584C105.481 20.8373 105.939 20.0373 106.409 19.184C106.729 18.608 107.027 18.128 107.305 17.744C107.582 17.36 107.977 17.168 108.489 17.168C108.723 17.168 108.958 17.2 109.193 17.264C109.427 17.328 109.673 17.3387 109.929 17.296C109.758 17.4667 109.523 17.7867 109.225 18.256C108.947 18.7253 108.649 19.2587 108.329 19.856C108.009 20.4533 107.721 21.0613 107.465 21.68C107.209 22.2987 107.027 22.832 106.921 23.28C106.899 23.408 106.867 23.5893 106.825 23.824C106.803 24.0587 106.793 24.2293 106.793 24.336C106.793 24.9333 106.963 25.232 107.305 25.232C107.646 25.232 108.009 25.0293 108.393 24.624C108.798 24.2187 109.193 23.7173 109.577 23.12C109.961 22.5227 110.313 21.9253 110.633 21.328C110.953 20.7093 111.209 20.208 111.401 19.824C111.486 19.6107 111.614 19.504 111.785 19.504C111.891 19.504 111.945 19.5787 111.945 19.728C111.945 19.792 111.913 19.9093 111.849 20.08C111.593 20.6133 111.283 21.2213 110.921 21.904C110.558 22.5653 110.163 23.216 109.737 23.856C109.31 24.4747 108.862 24.9973 108.393 25.424C107.945 25.8293 107.486 26.0533 107.017 26.096ZM108.314 26.256C109.082 24.6987 109.819 23.1627 110.523 21.648C111.248 20.112 111.984 18.6507 112.731 17.264C113.157 16.496 113.509 15.9627 113.786 15.664C114.085 15.344 114.48 15.184 114.971 15.184C115.141 15.184 115.323 15.216 115.515 15.28C115.707 15.3227 115.899 15.344 116.091 15.344C116.219 15.344 116.315 15.3333 116.379 15.312C116.08 15.4827 115.696 15.9093 115.227 16.592C114.757 17.2533 114.277 18.0213 113.786 18.896C113.296 19.7707 112.859 20.592 112.475 21.36C112.88 20.8693 113.296 20.3787 113.723 19.888C114.171 19.3973 114.661 18.928 115.195 18.48C115.707 18.032 116.315 17.5733 117.019 17.104C117.744 16.6133 118.448 16.208 119.131 15.888C119.813 15.568 120.357 15.408 120.763 15.408C120.912 15.408 121.019 15.4187 121.083 15.44C121.083 15.44 120.965 15.6533 120.731 16.08C120.496 16.4853 120.197 17.0293 119.835 17.712C119.493 18.3733 119.141 19.088 118.779 19.856C118.416 20.6027 118.085 21.328 117.786 22.032C117.509 22.7147 117.328 23.2907 117.243 23.76C117.179 24.0373 117.147 24.2933 117.147 24.528C117.147 24.8693 117.211 25.0933 117.339 25.2C117.467 25.3067 117.605 25.36 117.755 25.36C118.16 25.36 118.587 25.1467 119.035 24.72C119.483 24.272 119.909 23.728 120.315 23.088C120.741 22.448 121.115 21.8293 121.435 21.232C121.776 20.6133 122.021 20.144 122.171 19.824C122.256 19.6533 122.32 19.5573 122.363 19.536C122.405 19.4933 122.469 19.472 122.555 19.472C122.683 19.472 122.747 19.5573 122.747 19.728C122.747 19.8347 122.715 19.952 122.651 20.08C122.395 20.5707 122.085 21.1573 121.723 21.84C121.381 22.5227 120.987 23.1947 120.539 23.856C120.091 24.496 119.6 25.04 119.067 25.488C118.533 25.9147 117.957 26.128 117.339 26.128C116.912 26.128 116.464 25.9787 115.995 25.68C115.547 25.3813 115.323 24.8267 115.323 24.016C115.323 23.7813 115.344 23.536 115.387 23.28C115.429 23.0027 115.504 22.704 115.611 22.384C115.781 21.9573 115.984 21.4987 116.219 21.008C116.453 20.5173 116.837 19.8453 117.371 18.992C117.52 18.7573 117.605 18.576 117.627 18.448C117.669 18.32 117.691 18.2133 117.691 18.128C117.691 17.872 117.573 17.744 117.339 17.744C117.147 17.744 116.859 17.8507 116.475 18.064C116.112 18.2773 115.653 18.6507 115.099 19.184C114.565 19.696 113.925 20.4213 113.179 21.36C112.453 22.2987 111.611 23.6853 110.651 25.52C110.501 25.7973 110.331 25.9467 110.139 25.968C109.968 25.9893 109.723 26.0107 109.402 26.032C109.189 26.0533 108.986 26.064 108.794 26.064C108.603 26.0853 108.442 26.1493 108.314 26.256ZM124.377 26.128C123.587 26.128 122.873 25.872 122.233 25.36C121.614 24.848 121.305 24.0693 121.305 23.024C121.305 22.064 121.539 21.04 122.009 19.952C122.478 18.8427 123.075 17.872 123.801 17.04C124.419 16.3147 125.113 15.7173 125.881 15.248C126.649 14.7787 127.374 14.544 128.057 14.544C128.526 14.544 128.931 14.672 129.273 14.928C129.635 15.2053 129.817 15.6 129.817 16.112C129.817 16.6453 129.614 17.232 129.209 17.872C128.803 18.512 128.227 19.1093 127.481 19.664C127.161 19.8987 126.755 20.1227 126.265 20.336C125.774 20.5493 125.283 20.7307 124.793 20.88C124.302 21.008 123.897 21.072 123.577 21.072C123.47 21.328 123.363 21.6693 123.257 22.096C123.171 22.5227 123.129 22.96 123.129 23.408C123.129 23.9413 123.235 24.4213 123.449 24.848C123.662 25.2747 124.057 25.488 124.633 25.488C125.337 25.488 125.977 25.2853 126.553 24.88C127.129 24.4747 127.641 23.9733 128.089 23.376C128.537 22.7573 128.91 22.1387 129.209 21.52C129.529 20.9013 129.785 20.3787 129.977 19.952C130.105 19.6533 130.275 19.504 130.489 19.504C130.595 19.504 130.649 19.5573 130.649 19.664C130.649 19.7493 130.617 19.856 130.553 19.984C130.254 20.624 129.934 21.3067 129.593 22.032C129.251 22.736 128.846 23.408 128.377 24.048C127.907 24.6667 127.342 25.168 126.681 25.552C126.041 25.936 125.273 26.128 124.377 26.128ZM123.801 20.496C124.099 20.496 124.601 20.3893 125.305 20.176C126.009 19.9413 126.649 19.5787 127.225 19.088C127.779 18.5973 128.206 18.064 128.505 17.488C128.803 16.8907 128.953 16.3893 128.953 15.984C128.953 15.5147 128.782 15.28 128.441 15.28C128.185 15.28 127.833 15.4507 127.385 15.792C126.937 16.1333 126.382 16.7093 125.721 17.52C125.315 18.032 124.931 18.5867 124.569 19.184C124.206 19.7813 123.95 20.2187 123.801 20.496ZM133.626 13.008C133.306 13.008 133.039 12.9013 132.826 12.688C132.634 12.4533 132.538 12.176 132.538 11.856C132.538 11.4507 132.698 11.0987 133.018 10.8C133.338 10.5013 133.69 10.352 134.074 10.352C134.415 10.352 134.693 10.4587 134.906 10.672C135.119 10.8853 135.226 11.1413 135.226 11.44C135.226 11.8453 135.066 12.208 134.746 12.528C134.426 12.848 134.053 13.008 133.626 13.008ZM131.034 26C130.245 26 129.69 25.776 129.37 25.328C129.05 24.8587 128.89 24.3253 128.89 23.728C128.89 23.408 128.922 23.088 128.986 22.768C129.071 22.4267 129.167 22.1173 129.274 21.84L131.418 16.368C131.482 16.1973 131.514 16.048 131.514 15.92C131.514 15.7067 131.461 15.5253 131.354 15.376C131.247 15.2053 131.173 15.088 131.13 15.024L132.89 14.96C133.21 14.9387 133.434 14.9813 133.562 15.088C133.711 15.1733 133.786 15.28 133.786 15.408C133.786 15.536 133.711 15.7707 133.562 16.112L130.906 22.352C130.906 22.352 130.842 22.4907 130.714 22.768C130.607 23.024 130.543 23.1947 130.522 23.28C130.458 23.6 130.415 23.8027 130.394 23.888C130.373 23.9733 130.362 24.0267 130.362 24.048C130.362 24.0693 130.362 24.1547 130.362 24.304C130.362 24.5813 130.426 24.816 130.554 25.008C130.703 25.2 130.949 25.296 131.29 25.296C131.503 25.296 131.749 25.232 132.026 25.104C132.303 24.976 132.506 24.848 132.634 24.72C133.167 24.1653 133.69 23.44 134.202 22.544C134.735 21.6267 135.226 20.72 135.674 19.824C135.759 19.6107 135.866 19.504 135.994 19.504C136.101 19.504 136.154 19.5787 136.154 19.728C136.154 19.8133 136.122 19.9413 136.058 20.112C135.845 20.56 135.578 21.1147 135.258 21.776C134.938 22.4373 134.554 23.0987 134.106 23.76C133.679 24.4 133.21 24.9333 132.698 25.36C132.186 25.7867 131.631 26 131.034 26ZM139.475 26.032C139.07 26.032 138.664 25.872 138.259 25.552C137.854 25.2107 137.651 24.6667 137.651 23.92C137.651 23.344 137.79 22.6827 138.067 21.936C138.323 21.2107 138.664 20.5067 139.091 19.824C139.539 19.1413 139.859 18.5867 140.051 18.16C140.115 17.9893 140.147 17.84 140.147 17.712C140.147 17.328 139.902 17.0507 139.411 16.88C138.942 16.7093 138.323 16.6133 137.555 16.592L137.171 17.648C136.936 18.3307 136.606 19.1307 136.179 20.048C135.774 20.9653 135.315 21.8507 134.803 22.704C134.312 23.5573 133.8 24.24 133.267 24.752C133.224 24.7947 133.171 24.816 133.107 24.816C133.022 24.816 132.968 24.7627 132.947 24.656C132.904 24.5493 132.947 24.4213 133.075 24.272C133.907 23.1627 134.654 21.936 135.315 20.592C135.976 19.2267 136.531 17.84 136.979 16.432C137.448 15.024 137.79 13.7227 138.003 12.528C138.067 12.1867 138.184 11.9413 138.355 11.792C138.526 11.6213 138.707 11.536 138.899 11.536C139.176 11.536 139.432 11.6747 139.667 11.952C139.902 12.208 140.019 12.5813 140.019 13.072C140.019 13.1573 140.008 13.2533 139.987 13.36C139.987 13.4667 139.976 13.5733 139.955 13.68C139.87 14.128 139.614 14.5547 139.187 14.96C138.782 15.344 138.451 15.632 138.195 15.824C138.408 15.8453 138.632 15.8667 138.867 15.888C139.102 15.888 139.358 15.888 139.635 15.888C140.638 15.888 141.63 15.824 142.611 15.696C142.654 15.824 142.675 15.92 142.675 15.984C142.675 16.2613 142.59 16.6133 142.419 17.04C142.27 17.4667 142.11 17.8507 141.939 18.192C141.854 18.384 141.683 18.736 141.427 19.248C141.171 19.7387 140.894 20.304 140.595 20.944C140.296 21.5627 140.04 22.1813 139.827 22.8C139.635 23.3973 139.539 23.9093 139.539 24.336C139.539 24.8907 139.752 25.168 140.179 25.168C140.499 25.168 140.851 24.9653 141.235 24.56C141.619 24.1333 141.992 23.6213 142.355 23.024C142.739 22.4053 143.08 21.808 143.379 21.232C143.699 20.6347 143.944 20.1653 144.115 19.824C144.2 19.6107 144.318 19.504 144.467 19.504C144.552 19.504 144.595 19.5787 144.595 19.728C144.595 19.8133 144.563 19.9413 144.499 20.112C144.264 20.6027 143.987 21.1573 143.667 21.776C143.347 22.3947 142.984 23.0027 142.579 23.6C142.195 24.1973 141.768 24.72 141.299 25.168C140.851 25.5947 140.36 25.872 139.827 26C139.763 26.0213 139.646 26.032 139.475 26.032ZM145.547 26C144.736 26 144.139 25.7333 143.755 25.2C143.371 24.6453 143.179 23.9733 143.179 23.184C143.179 22.224 143.403 21.2213 143.851 20.176C144.277 19.1947 144.821 18.2987 145.483 17.488C146.144 16.6773 146.859 16.0267 147.627 15.536C148.395 15.024 149.141 14.768 149.867 14.768C150.677 14.768 151.275 15.0347 151.659 15.568C152.043 16.1013 152.235 16.7733 152.235 17.584C152.235 18.5653 152.011 19.568 151.563 20.592C151.307 21.168 150.944 21.808 150.475 22.512C150.005 23.1947 149.472 23.824 148.875 24.4C149.003 24.6347 149.184 24.8373 149.419 25.008C149.653 25.1573 149.973 25.232 150.379 25.232C150.891 25.232 151.371 25.0187 151.819 24.592C152.288 24.1653 152.715 23.6533 153.099 23.056C153.483 22.4373 153.824 21.8187 154.123 21.2C154.421 20.5813 154.667 20.08 154.859 19.696C154.923 19.568 155.029 19.504 155.179 19.504C155.264 19.504 155.328 19.5467 155.371 19.632C155.413 19.696 155.403 19.8027 155.339 19.952C155.211 20.272 154.997 20.752 154.699 21.392C154.4 22.0107 154.037 22.6613 153.611 23.344C153.184 24.0053 152.693 24.5707 152.139 25.04C151.584 25.5093 150.965 25.744 150.283 25.744C149.813 25.744 149.408 25.6693 149.067 25.52C148.725 25.3493 148.448 25.1467 148.235 24.912C147.787 25.2533 147.339 25.52 146.891 25.712C146.443 25.904 145.995 26 145.547 26ZM146.027 25.296C146.603 25.296 147.221 25.0187 147.883 24.464C147.712 24.208 147.584 23.9413 147.499 23.664C147.413 23.3867 147.371 23.1307 147.371 22.896C147.371 22.512 147.456 22.1813 147.627 21.904C147.819 21.6267 148.107 21.488 148.491 21.488C148.768 21.488 148.992 21.5947 149.163 21.808C149.355 22 149.451 22.224 149.451 22.48C149.451 22.544 149.44 22.608 149.419 22.672C149.419 22.7147 149.408 22.768 149.387 22.832C149.749 22.3413 150.091 21.7653 150.411 21.104C151.115 19.5893 151.467 18.3413 151.467 17.36C151.467 16.8693 151.371 16.4853 151.179 16.208C150.987 15.9307 150.699 15.792 150.315 15.792C149.867 15.792 149.376 15.984 148.843 16.368C148.331 16.752 147.829 17.264 147.339 17.904C146.869 18.544 146.453 19.2587 146.091 20.048C145.749 20.7733 145.472 21.4773 145.259 22.16C145.067 22.8213 144.971 23.3973 144.971 23.888C144.971 24.3147 145.056 24.656 145.227 24.912C145.397 25.168 145.664 25.296 146.027 25.296ZM168.962 26.384C168.727 26.384 168.375 26.2987 167.906 26.128C167.437 25.9787 166.935 25.7973 166.402 25.584C165.869 25.3493 165.367 25.136 164.898 24.944C164.45 24.7307 164.13 24.5813 163.938 24.496L161.73 26.256L161.282 26C161.303 25.9573 161.463 25.7653 161.762 25.424C162.061 25.0613 162.402 24.6667 162.786 24.24C163.191 23.792 163.554 23.3973 163.874 23.056C164.194 22.7147 164.375 22.5333 164.418 22.512H164.706C164.791 22.512 164.866 22.512 164.93 22.512C165.015 22.512 165.09 22.5333 165.154 22.576C165.687 22.1067 166.37 21.488 167.202 20.72C168.034 19.952 168.909 19.0987 169.826 18.16C170.743 17.2213 171.607 16.2613 172.418 15.28C173.25 14.2773 173.922 13.3173 174.434 12.4C174.946 11.4613 175.202 10.6293 175.202 9.904C175.202 9.392 175.063 9.02933 174.786 8.816C174.509 8.60267 174.125 8.496 173.634 8.496C172.823 8.496 172.066 8.76267 171.362 9.296C170.658 9.82933 170.039 10.4907 169.506 11.28C168.994 12.048 168.599 12.784 168.322 13.488L168.194 13.616H167.81L167.778 13.392C168.119 12.4533 168.599 11.536 169.218 10.64C169.858 9.72267 170.626 8.96533 171.522 8.368C172.418 7.77067 173.41 7.472 174.498 7.472C175.309 7.472 175.991 7.70667 176.546 8.176C177.122 8.624 177.41 9.28533 177.41 10.16C177.41 10.736 177.186 11.3973 176.738 12.144C176.29 12.8907 175.693 13.68 174.946 14.512C174.199 15.344 173.389 16.176 172.514 17.008C171.639 17.84 170.765 18.6293 169.89 19.376C169.015 20.1227 168.215 20.7947 167.49 21.392C166.765 21.968 166.199 22.4267 165.794 22.768C166.007 22.8533 166.317 23.0027 166.722 23.216C167.127 23.408 167.565 23.6107 168.034 23.824C168.503 24.0373 168.93 24.2187 169.314 24.368C169.719 24.5173 170.018 24.592 170.21 24.592C170.658 24.592 171.074 24.4853 171.458 24.272C171.863 24.0373 172.226 23.7707 172.546 23.472C172.866 23.1733 173.133 22.9067 173.346 22.672C173.581 22.416 173.741 22.2773 173.826 22.256L174.082 22.448V22.576C173.826 22.896 173.495 23.2693 173.09 23.696C172.706 24.1227 172.269 24.5387 171.778 24.944C171.309 25.3493 170.829 25.6907 170.338 25.968C169.847 26.2453 169.389 26.384 168.962 26.384ZM182.122 26.384C181.332 26.384 180.671 26.192 180.138 25.808C179.626 25.4027 179.242 24.88 178.986 24.24C178.73 23.6 178.602 22.9173 178.602 22.192C178.602 21.3813 178.762 20.4533 179.082 19.408C179.402 18.3627 179.839 17.2853 180.394 16.176C180.97 15.0667 181.631 13.9893 182.378 12.944C183.124 11.8987 183.924 10.96 184.778 10.128C185.652 9.27467 186.548 8.60267 187.466 8.112C188.383 7.62133 189.29 7.376 190.186 7.376C191.316 7.376 192.095 7.728 192.522 8.432C192.97 9.11467 193.194 9.95733 193.194 10.96C193.194 11.8133 193.055 12.784 192.778 13.872C192.5 14.9387 192.106 16.0587 191.594 17.232C191.103 18.384 190.516 19.504 189.834 20.592C189.151 21.68 188.394 22.6613 187.562 23.536C186.751 24.4107 185.887 25.104 184.97 25.616C184.052 26.128 183.103 26.384 182.122 26.384ZM182.506 25.744C183.231 25.744 183.967 25.4667 184.714 24.912C185.46 24.336 186.186 23.5787 186.89 22.64C187.594 21.68 188.244 20.6347 188.842 19.504C189.46 18.352 190.004 17.2 190.474 16.048C190.943 14.8747 191.306 13.7973 191.562 12.816C191.818 11.8133 191.946 10.992 191.946 10.352C191.946 9.73333 191.828 9.18933 191.594 8.72C191.359 8.22933 190.9 7.984 190.218 7.984C189.514 7.984 188.788 8.272 188.042 8.848C187.295 9.424 186.559 10.192 185.834 11.152C185.13 12.0907 184.458 13.136 183.818 14.288C183.178 15.44 182.612 16.592 182.122 17.744C181.631 18.896 181.247 19.9627 180.97 20.944C180.692 21.904 180.554 22.6827 180.554 23.28C180.554 23.9413 180.692 24.5173 180.97 25.008C181.247 25.4987 181.759 25.744 182.506 25.744ZM200.806 26.384C200.571 26.384 200.219 26.2987 199.75 26.128C199.28 25.9787 198.779 25.7973 198.246 25.584C197.712 25.3493 197.211 25.136 196.742 24.944C196.294 24.7307 195.974 24.5813 195.782 24.496L193.574 26.256L193.126 26C193.147 25.9573 193.307 25.7653 193.606 25.424C193.904 25.0613 194.246 24.6667 194.63 24.24C195.035 23.792 195.398 23.3973 195.718 23.056C196.038 22.7147 196.219 22.5333 196.262 22.512H196.55C196.635 22.512 196.71 22.512 196.774 22.512C196.859 22.512 196.934 22.5333 196.998 22.576C197.531 22.1067 198.214 21.488 199.046 20.72C199.878 19.952 200.752 19.0987 201.67 18.16C202.587 17.2213 203.451 16.2613 204.262 15.28C205.094 14.2773 205.766 13.3173 206.278 12.4C206.79 11.4613 207.046 10.6293 207.046 9.904C207.046 9.392 206.907 9.02933 206.63 8.816C206.352 8.60267 205.968 8.496 205.478 8.496C204.667 8.496 203.91 8.76267 203.206 9.296C202.502 9.82933 201.883 10.4907 201.35 11.28C200.838 12.048 200.443 12.784 200.166 13.488L200.038 13.616H199.654L199.622 13.392C199.963 12.4533 200.443 11.536 201.062 10.64C201.702 9.72267 202.47 8.96533 203.366 8.368C204.262 7.77067 205.254 7.472 206.342 7.472C207.152 7.472 207.835 7.70667 208.39 8.176C208.966 8.624 209.254 9.28533 209.254 10.16C209.254 10.736 209.03 11.3973 208.582 12.144C208.134 12.8907 207.536 13.68 206.79 14.512C206.043 15.344 205.232 16.176 204.358 17.008C203.483 17.84 202.608 18.6293 201.734 19.376C200.859 20.1227 200.059 20.7947 199.334 21.392C198.608 21.968 198.043 22.4267 197.638 22.768C197.851 22.8533 198.16 23.0027 198.566 23.216C198.971 23.408 199.408 23.6107 199.878 23.824C200.347 24.0373 200.774 24.2187 201.158 24.368C201.563 24.5173 201.862 24.592 202.054 24.592C202.502 24.592 202.918 24.4853 203.302 24.272C203.707 24.0373 204.07 23.7707 204.39 23.472C204.71 23.1733 204.976 22.9067 205.19 22.672C205.424 22.416 205.584 22.2773 205.67 22.256L205.926 22.448V22.576C205.67 22.896 205.339 23.2693 204.934 23.696C204.55 24.1227 204.112 24.5387 203.622 24.944C203.152 25.3493 202.672 25.6907 202.182 25.968C201.691 26.2453 201.232 26.384 200.806 26.384ZM212.077 26.384C211.587 26.384 211.075 26.3307 210.541 26.224C210.008 26.1173 209.539 25.9147 209.133 25.616V25.424L209.325 25.232L209.517 25.168C209.816 25.3173 210.168 25.4347 210.573 25.52C211 25.6053 211.384 25.648 211.725 25.648C212.557 25.648 213.421 25.424 214.317 24.976C215.213 24.528 216.045 23.9413 216.813 23.216C217.581 22.4693 218.2 21.6587 218.669 20.784C219.16 19.9093 219.405 19.0453 219.405 18.192C219.405 17.5093 219.181 17.008 218.733 16.688C218.307 16.368 217.795 16.208 217.197 16.208C216.835 16.208 216.451 16.2613 216.045 16.368C215.661 16.4533 215.288 16.5493 214.925 16.656L214.701 16.56L214.669 16.272L214.797 16.08C215.373 15.8453 216.077 15.5253 216.909 15.12C217.741 14.7147 218.563 14.2347 219.373 13.68C220.184 13.1253 220.856 12.5067 221.389 11.824C221.923 11.1413 222.189 10.4053 222.189 9.616C222.189 8.848 221.784 8.464 220.973 8.464C220.419 8.464 219.853 8.624 219.277 8.944C218.723 9.264 218.2 9.648 217.709 10.096C217.24 10.5227 216.835 10.9387 216.493 11.344H216.333L216.109 11.12V10.96C216.6 10.3627 217.144 9.79733 217.741 9.264C218.339 8.73067 218.989 8.29333 219.693 7.952C220.419 7.61067 221.187 7.44 221.997 7.44C222.637 7.44 223.203 7.58933 223.693 7.888C224.184 8.18667 224.429 8.688 224.429 9.392C224.429 10.2027 224.173 10.9387 223.661 11.6C223.171 12.24 222.541 12.816 221.773 13.328C221.027 13.8187 220.248 14.2453 219.437 14.608C218.627 14.9707 217.901 15.2693 217.261 15.504C217.901 15.504 218.552 15.5893 219.213 15.76C219.896 15.9307 220.461 16.2293 220.909 16.656C221.379 17.0827 221.613 17.68 221.613 18.448C221.613 19.2373 221.4 20.016 220.973 20.784C220.568 21.552 220.013 22.2773 219.309 22.96C218.627 23.6213 217.859 24.208 217.005 24.72C216.173 25.232 215.331 25.6373 214.477 25.936C213.624 26.2347 212.824 26.384 212.077 26.384ZM82.5165 66.096C82.2818 66.1173 82.0152 66.064 81.7165 65.936C81.4178 65.808 81.1512 65.5733 80.9165 65.232C80.7032 64.8907 80.5965 64.4107 80.5965 63.792C80.5965 63.28 80.6925 62.6613 80.8845 61.936C80.6285 62.3413 80.2978 62.8427 79.8925 63.44C79.4872 64.016 79.0498 64.528 78.5805 64.976C78.1752 65.36 77.7912 65.6373 77.4285 65.808C77.0658 65.9787 76.7352 66.064 76.4365 66.064C75.8818 66.064 75.4338 65.8187 75.0925 65.328C74.7512 64.816 74.5805 64.1547 74.5805 63.344C74.5805 62.4907 74.7938 61.52 75.2205 60.432C75.6472 59.344 76.3405 58.2133 77.3005 57.04C77.9192 56.2933 78.6658 55.696 79.5405 55.248C80.4365 54.7787 81.3112 54.544 82.1645 54.544C82.6552 54.544 83.1245 54.6293 83.5725 54.8C84.0205 54.9493 84.4152 55.2053 84.7565 55.568C84.9058 55.7173 84.9805 55.888 84.9805 56.08C84.9805 56.208 84.9272 56.3147 84.8205 56.4C84.7138 56.4853 84.5752 56.5067 84.4045 56.464C84.1698 55.7173 83.6685 55.344 82.9005 55.344C82.5378 55.344 82.1218 55.4613 81.6525 55.696C80.9272 56.08 80.1698 56.7093 79.3805 57.584C78.6125 58.4587 77.9405 59.3653 77.3645 60.304C77.2792 60.432 77.1405 60.6773 76.9485 61.04C76.7778 61.4027 76.6072 61.808 76.4365 62.256C76.2658 62.704 76.1485 63.1413 76.0845 63.568C76.0632 63.696 76.0525 63.792 76.0525 63.856C76.0525 63.8987 76.0525 63.9733 76.0525 64.08C76.0525 64.784 76.3192 65.136 76.8525 65.136C77.4925 65.136 78.2178 64.6667 79.0285 63.728C79.5832 63.0453 80.0845 62.3307 80.5325 61.584C80.9805 60.8373 81.4392 60.0373 81.9085 59.184C82.2285 58.608 82.5272 58.128 82.8045 57.744C83.0818 57.36 83.4765 57.168 83.9885 57.168C84.2232 57.168 84.4578 57.2 84.6925 57.264C84.9272 57.328 85.1725 57.3387 85.4285 57.296C85.2578 57.4667 85.0232 57.7867 84.7245 58.256C84.4472 58.7253 84.1485 59.2587 83.8285 59.856C83.5085 60.4533 83.2205 61.0613 82.9645 61.68C82.7085 62.2987 82.5272 62.832 82.4205 63.28C82.3992 63.408 82.3672 63.5893 82.3245 63.824C82.3032 64.0587 82.2925 64.2293 82.2925 64.336C82.2925 64.9333 82.4632 65.232 82.8045 65.232C83.1458 65.232 83.5085 65.0293 83.8925 64.624C84.2978 64.2187 84.6925 63.7173 85.0765 63.12C85.4605 62.5227 85.8125 61.9253 86.1325 61.328C86.4525 60.7093 86.7085 60.208 86.9005 59.824C86.9858 59.6107 87.1138 59.504 87.2845 59.504C87.3912 59.504 87.4445 59.5787 87.4445 59.728C87.4445 59.792 87.4125 59.9093 87.3485 60.08C87.0925 60.6133 86.7832 61.2213 86.4205 61.904C86.0578 62.5653 85.6632 63.216 85.2365 63.856C84.8098 64.4747 84.3618 64.9973 83.8925 65.424C83.4445 65.8293 82.9858 66.0533 82.5165 66.096ZM84.0845 52.592C84.0205 52.592 83.7858 52.496 83.3805 52.304C82.9752 52.112 82.5165 51.8773 82.0045 51.6C81.4925 51.3227 81.0125 51.0667 80.5645 50.832C80.1378 50.5973 79.8392 50.4373 79.6685 50.352C79.3912 50.224 79.1245 50.0427 78.8685 49.808C78.6125 49.5733 78.4845 49.2853 78.4845 48.944C78.4845 48.496 78.6978 48.272 79.1245 48.272C79.2525 48.272 79.5085 48.4 79.8925 48.656C80.2765 48.912 80.7245 49.232 81.2365 49.616C81.7485 50 82.2392 50.3947 82.7085 50.8C83.1992 51.184 83.6045 51.5253 83.9245 51.824C84.2445 52.1013 84.4045 52.2613 84.4045 52.304C84.4045 52.496 84.2978 52.592 84.0845 52.592ZM87.5905 66.128C86.5452 66.128 85.7985 65.8613 85.3505 65.328C84.9238 64.7733 84.7105 64.1973 84.7105 63.6C84.7105 63.1093 84.8278 62.6613 85.0625 62.256C85.3185 61.8507 85.6172 61.6373 85.9585 61.616C86.3852 60.784 86.8438 59.8773 87.3345 58.896C87.8465 57.9147 88.3158 56.9653 88.7425 56.048C89.0412 55.4293 89.4145 54.832 89.8625 54.256C90.3318 53.68 90.8438 53.3493 91.3985 53.264H91.7185C91.8892 53.264 92.0385 53.2747 92.1665 53.296C92.3158 53.3173 92.4652 53.36 92.6145 53.424C92.8492 53.5307 92.9665 53.6907 92.9665 53.904C92.9665 54.032 92.8918 54.096 92.7425 54.096C92.6785 54.096 92.5932 54.064 92.4865 54C92.2305 53.8933 92.0065 53.84 91.8145 53.84C91.6865 53.84 91.5692 53.872 91.4625 53.936C91.0572 54.1493 90.7692 54.448 90.5985 54.832C90.4492 55.216 90.3745 55.6213 90.3745 56.048C90.3745 56.3893 90.4065 56.7413 90.4705 57.104C90.5558 57.4453 90.6518 57.7547 90.7585 58.032C90.9932 58.6293 91.2385 59.216 91.4945 59.792C91.7718 60.368 91.9105 60.9867 91.9105 61.648C91.9105 62.288 91.6972 62.9707 91.2705 63.696C90.8438 64.4 90.2998 64.9653 89.6385 65.392L89.8625 65.424C89.9692 65.4453 90.0438 65.456 90.0865 65.456C90.1292 65.456 90.1612 65.456 90.1825 65.456C90.6732 65.456 91.1318 65.3173 91.5585 65.04C92.0065 64.7413 92.4012 64.3787 92.7425 63.952C93.0838 63.5253 93.4678 62.928 93.8945 62.16C94.3425 61.392 94.7692 60.5813 95.1745 59.728C95.2385 59.6213 95.3132 59.568 95.3985 59.568C95.5052 59.568 95.5798 59.6107 95.6225 59.696C95.6865 59.76 95.6972 59.8453 95.6545 59.952C95.3772 60.5493 95.0572 61.2 94.6945 61.904C94.3532 62.5867 93.9585 63.248 93.5105 63.888C93.0625 64.5067 92.5398 65.0187 91.9425 65.424C91.3665 65.808 90.7158 66 89.9905 66C89.8198 66 89.6385 65.9893 89.4465 65.968C89.2545 65.9467 89.0625 65.904 88.8705 65.84C88.6572 65.9253 88.4332 65.9893 88.1985 66.032C87.9852 66.096 87.7825 66.128 87.5905 66.128ZM88.5505 65.168C88.9132 64.8693 89.2332 64.432 89.5105 63.856C89.8092 63.28 89.9585 62.5227 89.9585 61.584C89.9585 60.752 89.8732 59.8667 89.7025 58.928C89.5318 57.9893 89.4465 57.1573 89.4465 56.432C89.4465 56.2827 89.4465 56.1547 89.4465 56.048C89.4678 55.92 89.4892 55.8027 89.5105 55.696C89.2332 56.272 88.9132 56.944 88.5505 57.712C88.1878 58.4587 87.8252 59.184 87.4625 59.888C87.0998 60.592 86.7905 61.1893 86.5345 61.68C86.5345 61.68 86.5878 61.6907 86.6945 61.712C86.8225 61.712 86.9398 61.7867 87.0465 61.936C87.1532 62.064 87.1958 62.3307 87.1745 62.736C87.1532 63.2693 87.2705 63.7707 87.5265 64.24C87.8038 64.688 88.1452 64.9973 88.5505 65.168ZM87.3345 65.616C87.4625 65.616 87.5798 65.6053 87.6865 65.584C87.7932 65.5413 87.8892 65.5093 87.9745 65.488C87.6545 65.2533 87.3665 64.944 87.1105 64.56C86.8758 64.1547 86.7372 63.6427 86.6945 63.024C86.3105 63.4293 86.1185 63.8667 86.1185 64.336C86.1185 64.6773 86.2252 64.976 86.4385 65.232C86.6518 65.488 86.9505 65.616 87.3345 65.616ZM103.866 66.096C103.823 66.096 103.77 66.0747 103.706 66.032C103.642 66.0107 103.599 66 103.578 66L103.514 65.84C104.964 63.2373 106.415 60.6453 107.866 58.064C109.316 55.4613 110.767 52.8693 112.218 50.288C111.386 51.0347 110.543 51.7493 109.69 52.432C108.836 53.0933 107.93 53.712 106.97 54.288H106.81L106.682 54.032L106.778 53.808C107.652 53.1467 108.634 52.4 109.722 51.568C110.81 50.7147 111.791 49.8187 112.666 48.88C112.9 48.624 113.135 48.3893 113.37 48.176C113.604 47.9627 113.85 47.8453 114.106 47.824L115.098 47.728C115.14 47.7067 115.172 47.7067 115.194 47.728C115.236 47.728 115.279 47.728 115.322 47.728V47.888L115.13 48.24L105.53 65.872C105.38 65.9573 105.114 66 104.73 66C104.346 66.0213 104.058 66.0533 103.866 66.096ZM118.453 66.384C117.387 66.384 116.544 66.0853 115.925 65.488C115.307 64.8693 114.997 64.0053 114.997 62.896C114.997 61.7227 115.275 60.528 115.829 59.312C116.384 58.096 117.12 56.9013 118.037 55.728C118.955 54.5333 119.957 53.4027 121.045 52.336C122.133 51.2693 123.221 50.288 124.309 49.392C125.397 48.496 126.389 47.7387 127.285 47.12L127.509 47.088L127.733 47.472C127.691 47.4933 127.659 47.536 127.637 47.6C127.616 47.6427 127.584 47.6853 127.541 47.728C127.243 48.0693 126.891 48.3893 126.485 48.688C126.101 48.9653 125.728 49.264 125.365 49.584C124.64 50.2453 123.915 50.9813 123.189 51.792C122.464 52.5813 121.813 53.3493 121.237 54.096C120.789 54.6933 120.309 55.376 119.797 56.144C119.285 56.912 118.805 57.7333 118.357 58.608C117.931 59.4613 117.568 60.3253 117.269 61.2C116.992 62.0533 116.853 62.864 116.853 63.632C116.853 64.1653 117.003 64.6347 117.301 65.04C117.6 65.424 118.037 65.616 118.613 65.616C119.381 65.616 120.128 65.328 120.853 64.752C121.579 64.176 122.219 63.4507 122.773 62.576C123.349 61.68 123.808 60.7733 124.149 59.856C124.491 58.9387 124.661 58.1387 124.661 57.456C124.661 57.0933 124.587 56.7947 124.437 56.56C124.288 56.304 124.011 56.176 123.605 56.176C123.072 56.176 122.56 56.3573 122.069 56.72C121.579 57.0827 121.12 57.5413 120.693 58.096C120.288 58.6293 119.936 59.184 119.637 59.76C119.339 60.336 119.104 60.8373 118.933 61.264L118.805 61.456L118.485 61.488L118.421 61.264C118.571 60.6453 118.827 59.984 119.189 59.28C119.552 58.576 120 57.9147 120.533 57.296C121.067 56.6773 121.653 56.176 122.293 55.792C122.955 55.3867 123.648 55.184 124.373 55.184C125.12 55.184 125.685 55.4293 126.069 55.92C126.453 56.4107 126.645 57.008 126.645 57.712C126.645 58.6293 126.4 59.5893 125.909 60.592C125.419 61.5947 124.768 62.5333 123.957 63.408C123.147 64.2827 122.261 64.9973 121.301 65.552C120.341 66.1067 119.392 66.384 118.453 66.384ZM126.032 66.256C126.928 64.4213 127.857 62.5013 128.817 60.496C129.798 58.4693 130.801 56.432 131.825 54.384C132.849 52.336 133.862 50.384 134.865 48.528C135.227 47.888 135.558 47.3867 135.857 47.024C136.177 46.6613 136.593 46.48 137.105 46.48C137.297 46.48 137.521 46.512 137.777 46.576C138.033 46.64 138.278 46.6507 138.513 46.608C138.235 46.9067 137.851 47.4293 137.361 48.176C136.891 48.9227 136.358 49.8187 135.76 50.864C135.185 51.9093 134.566 53.04 133.905 54.256C133.265 55.4507 132.625 56.6667 131.985 57.904C131.366 59.12 130.79 60.2613 130.257 61.328C130.683 60.7733 131.121 60.2507 131.569 59.76C132.017 59.2693 132.454 58.8427 132.881 58.48C133.35 58.0533 133.937 57.6053 134.641 57.136C135.366 56.6667 136.081 56.2613 136.785 55.92C137.51 55.5787 138.086 55.408 138.513 55.408C138.662 55.408 138.769 55.4187 138.833 55.44C138.833 55.44 138.715 55.6533 138.481 56.08C138.246 56.5067 137.947 57.0507 137.585 57.712C137.243 58.3733 136.881 59.088 136.497 59.856C136.134 60.624 135.814 61.36 135.536 62.064C135.259 62.7467 135.078 63.312 134.993 63.76C134.929 64.1013 134.897 64.3893 134.897 64.624C134.897 64.9653 134.961 65.2 135.089 65.328C135.217 65.4347 135.355 65.488 135.505 65.488C135.867 65.488 136.262 65.264 136.689 64.816C137.115 64.368 137.531 63.824 137.937 63.184C138.342 62.5227 138.705 61.8827 139.025 61.264C139.366 60.6453 139.622 60.1653 139.793 59.824C139.921 59.5893 140.049 59.472 140.177 59.472C140.305 59.472 140.369 59.5573 140.369 59.728C140.369 59.8133 140.337 59.9413 140.273 60.112C139.995 60.6667 139.675 61.296 139.313 62C138.971 62.6827 138.577 63.344 138.129 63.984C137.702 64.6027 137.222 65.1147 136.689 65.52C136.177 65.9253 135.622 66.128 135.025 66.128C134.598 66.128 134.161 65.9787 133.713 65.68C133.265 65.3813 133.041 64.8373 133.041 64.048C133.041 63.8133 133.062 63.568 133.105 63.312C133.147 63.0347 133.222 62.7253 133.329 62.384C133.457 61.9573 133.67 61.488 133.969 60.976C134.267 60.4427 134.651 59.7813 135.121 58.992C135.334 58.6293 135.441 58.3413 135.441 58.128C135.441 57.872 135.313 57.744 135.057 57.744C134.843 57.744 134.555 57.8507 134.193 58.064C133.83 58.2773 133.371 58.6507 132.817 59.184C132.283 59.696 131.622 60.4427 130.833 61.424C130.043 62.4053 129.201 63.7813 128.305 65.552C128.155 65.8293 127.985 65.9787 127.793 66C127.622 66 127.387 66.0107 127.088 66.032C126.896 66.0533 126.704 66.064 126.512 66.064C126.32 66.0853 126.16 66.1493 126.032 66.256Z" fill="#613F2A"/>
</svg>
