<svg width="268" height="172" viewBox="0 0 268 172" fill="none" xmlns="http://www.w3.org/2000/svg">
<path d="M109.486 171.192C103.121 170.655 99.938 167.389 99.938 161.396C99.938 157.841 101.054 154.08 103.286 150.112C104.609 147.715 106.262 145.379 108.246 143.106C110.271 140.833 112.462 138.787 114.818 136.968C117.215 135.108 119.654 133.641 122.134 132.566C124.655 131.491 127.073 130.954 129.388 130.954C133.48 130.954 135.526 132.463 135.526 135.48C135.526 137.505 134.906 139.758 133.666 142.238C132.426 144.718 131.165 146.289 129.884 146.95C129.76 146.991 129.615 147.012 129.45 147.012C129.326 147.012 129.264 146.971 129.264 146.888L131.31 143.54C132.715 141.225 133.418 139.2 133.418 137.464C133.418 136.224 133.087 135.046 132.426 133.93C131.765 132.814 130.587 132.256 128.892 132.256C126.825 132.256 124.697 132.835 122.506 133.992C120.357 135.149 118.269 136.679 116.244 138.58C114.219 140.481 112.379 142.589 110.726 144.904C109.073 147.177 107.75 149.43 106.758 151.662C104.65 156.415 103.596 160.259 103.596 163.194C103.596 167.617 105.849 169.828 110.354 169.828C114.653 169.828 120.481 167.059 127.838 161.52C129.533 160.239 131.703 158.441 134.348 156.126C137.035 153.811 140.176 151.001 143.772 147.694C143.276 147.735 142.656 147.797 141.912 147.88C141.168 147.921 140.3 148.025 139.308 148.19C138.895 148.273 138.502 148.355 138.13 148.438C137.758 148.479 137.407 148.5 137.076 148.5C136.249 148.417 135.898 148.211 136.022 147.88C136.187 146.351 136.973 145.586 138.378 145.586C139.659 145.751 140.858 145.875 141.974 145.958C143.131 146.041 144.227 146.082 145.26 146.082C146.872 144.594 149.001 142.527 151.646 139.882C154.333 137.195 157.515 133.909 161.194 130.024C165.947 125.023 168.841 122.522 169.874 122.522C170.329 122.522 170.556 122.935 170.556 123.762C170.556 124.093 170.515 124.506 170.432 125.002C170.349 125.498 170.225 126.077 170.06 126.738C169.647 128.309 169.213 129.259 168.758 129.59C167.477 130.499 166.402 131.677 165.534 133.124C164.707 134.529 163.86 136.1 162.992 137.836C162.124 139.613 161.318 141.205 160.574 142.61C159.871 143.974 159.231 145.193 158.652 146.268L164.666 146.144C166.154 146.144 166.898 146.247 166.898 146.454C166.898 146.495 166.857 146.557 166.774 146.64C166.071 147.095 163.095 147.508 157.846 147.88C154.002 155.361 152.08 160.487 152.08 163.256C152.08 165.157 152.679 166.108 153.878 166.108C154.333 166.108 154.911 165.819 155.614 165.24C156.275 164.703 156.689 164.434 156.854 164.434C156.854 164.351 156.875 164.331 156.916 164.372C156.957 164.413 156.937 164.434 156.854 164.434C156.647 165.178 156.027 165.839 154.994 166.418C154.002 167.038 152.948 167.348 151.832 167.348C150.799 167.348 150.117 167.017 149.786 166.356C149.455 165.695 149.29 164.785 149.29 163.628C149.29 159.453 150.881 154.142 154.064 147.694L146.624 147.88C141.085 153.295 135.526 158.048 129.946 162.14C121.059 168.588 114.239 171.605 109.486 171.192ZM154.622 146.082C155.118 145.131 156.11 143.416 157.598 140.936C159.086 138.415 161.091 135.149 163.612 131.14L147.74 146.02L154.622 146.082ZM167.923 164.124C166.724 164.124 165.608 163.835 164.575 163.256C163.542 162.636 163.025 161.623 163.025 160.218C163.025 158.275 163.707 155.961 165.071 153.274C166.476 150.587 168.068 147.797 169.845 144.904C174.681 137.051 178.112 133.124 180.137 133.124C180.55 133.124 180.964 133.289 181.377 133.62C181.832 133.909 182.08 134.24 182.121 134.612L177.781 140.44C176.086 142.713 174.557 144.821 173.193 146.764C171.829 148.665 170.651 150.381 169.659 151.91C169.163 152.695 168.605 153.584 167.985 154.576C167.365 155.568 166.807 156.601 166.311 157.676C165.856 158.709 165.629 159.763 165.629 160.838C165.629 161.334 165.774 161.789 166.063 162.202C166.352 162.574 166.869 162.76 167.613 162.76C168.936 162.76 170.672 162.057 172.821 160.652C174.97 159.205 177.099 157.221 179.207 154.7C179.414 154.452 179.641 154.225 179.889 154.018C180.137 153.811 180.344 153.708 180.509 153.708C180.716 153.708 180.819 153.832 180.819 154.08C180.819 154.204 180.674 154.452 180.385 154.824C180.137 155.155 179.93 155.423 179.765 155.63L178.277 157.304C177.45 158.213 176.458 159.205 175.301 160.28C174.185 161.355 172.986 162.264 171.705 163.008C170.465 163.752 169.204 164.124 167.923 164.124ZM181.449 164.806C180.126 164.806 178.928 164.393 177.853 163.566C176.778 162.698 176.241 161.561 176.241 160.156C176.241 157.221 178.039 153.873 181.635 150.112C185.314 146.309 188.6 144.408 191.493 144.408C192.444 144.408 193.208 144.677 193.787 145.214C194.407 145.71 194.717 146.33 194.717 147.074C194.717 149.389 192.878 151.662 189.199 153.894C185.934 155.878 183.185 156.87 180.953 156.87C180.622 156.87 180.333 156.829 180.085 156.746C179.465 157.862 179.155 159.04 179.155 160.28C179.155 162.429 180.168 163.504 182.193 163.504C184.26 163.504 186.926 162.119 190.191 159.35C192.712 157.325 194.862 155.175 196.639 152.902C197.011 152.406 197.342 152.158 197.631 152.158C197.879 152.158 198.003 152.282 198.003 152.53C198.003 152.778 197.838 153.129 197.507 153.584C196.35 155.113 195.11 156.519 193.787 157.8C192.464 159.081 191.038 160.259 189.509 161.334C186.326 163.649 183.64 164.806 181.449 164.806ZM181.821 155.506C183.392 155.506 185.438 154.721 187.959 153.15C188.786 152.571 189.592 151.931 190.377 151.228C191.204 150.484 191.865 149.74 192.361 148.996C192.898 148.252 193.167 147.591 193.167 147.012C193.167 146.475 192.733 146.206 191.865 146.206C190.625 146.206 188.889 147.136 186.657 148.996C185.582 149.905 184.549 150.897 183.557 151.972C182.565 153.047 181.718 154.183 181.015 155.382C181.263 155.465 181.532 155.506 181.821 155.506ZM193.095 170.324C192.599 170.324 192.351 170.097 192.351 169.642C192.351 169.518 192.392 169.415 192.475 169.332C196.319 163.256 200.473 157.924 204.937 153.336C204.978 152.344 205.02 151.063 205.061 149.492C205.102 147.88 205.164 145.979 205.247 143.788C204.792 143.871 204.028 144.573 202.953 145.896C201.878 147.177 200.618 148.872 199.171 150.98C197.766 153.047 196.443 154.762 195.203 156.126C194.004 157.49 193.322 158.234 193.157 158.358C192.868 158.606 192.599 158.73 192.351 158.73C192.144 158.73 192.041 158.627 192.041 158.42C192.041 158.255 192.124 158.089 192.289 157.924C192.413 157.717 192.744 157.325 193.281 156.746C194.025 155.919 194.666 155.196 195.203 154.576C195.74 153.915 196.257 153.212 196.753 152.468C197.29 151.724 197.91 150.815 198.613 149.74C199.068 149.079 199.626 148.252 200.287 147.26C200.99 146.227 201.692 145.235 202.395 144.284C203.139 143.333 203.78 142.631 204.317 142.176C204.73 141.804 205.164 141.535 205.619 141.37C206.115 141.205 206.57 141.122 206.983 141.122C207.479 141.122 207.934 141.225 208.347 141.432C208.802 141.639 208.967 142.093 208.843 142.796C208.843 142.837 208.74 143.499 208.533 144.78C208.368 146.02 208.202 147.859 208.037 150.298C208.822 149.554 210.372 148.169 212.687 146.144C215.043 144.077 218.06 141.473 221.739 138.332C221.822 138.249 221.925 138.208 222.049 138.208C222.338 138.208 222.648 138.394 222.979 138.766C223.31 139.097 223.475 139.448 223.475 139.82C223.475 140.151 223.31 140.481 222.979 140.812C221.698 141.845 219.218 143.705 215.539 146.392C213.886 147.549 212.398 148.665 211.075 149.74C209.794 150.815 208.74 151.745 207.913 152.53C207.872 152.943 207.851 153.357 207.851 153.77C207.851 154.183 207.851 154.576 207.851 154.948C207.851 157.511 208.099 159.433 208.595 160.714C209.132 161.954 209.98 162.574 211.137 162.574C212.418 162.574 214.03 161.768 215.973 160.156C217.957 158.503 219.982 156.477 222.049 154.08C222.462 153.667 222.772 153.46 222.979 153.46C223.186 153.46 223.289 153.584 223.289 153.832C223.289 153.915 223.248 154.039 223.165 154.204C223.124 154.369 223 154.576 222.793 154.824C221.47 156.353 220.024 157.903 218.453 159.474C216.924 161.045 215.374 162.367 213.803 163.442C212.232 164.475 210.724 164.992 209.277 164.992C208.037 164.992 207.107 164.537 206.487 163.628C205.867 162.677 205.454 161.479 205.247 160.032C205.082 158.585 204.978 157.077 204.937 155.506C199.894 160.879 196.112 165.736 193.591 170.076C193.467 170.241 193.302 170.324 193.095 170.324Z" fill="#613F2A"/>
<path d="M15.872 52.96C13.1027 52.96 10.5193 52.6087 8.122 51.906C5.766 51.2033 3.844 50.1287 2.356 48.682C0.909333 47.2353 0.186 45.4167 0.186 43.226C0.186 41.5313 0.723333 39.8367 1.798 38.142C5.60067 32.1073 12.09 27.6227 21.266 24.688C19.902 23.1173 19.22 21.34 19.22 19.356C19.22 17.744 19.654 16.3593 20.522 15.202C22.2167 12.8873 24.7793 10.9653 28.21 9.436C30.1527 8.60933 32.116 7.96866 34.1 7.514C36.1253 7.05933 38.1713 6.832 40.238 6.832C42.8007 6.832 44.7433 7.24533 46.066 8.072C47.43 8.89867 48.112 10.056 48.112 11.544C48.112 12.5773 47.8227 13.528 47.244 14.396C46.7067 15.2227 46.0247 15.9047 45.198 16.442C44.3713 16.938 43.524 17.186 42.656 17.186C41.3747 17.186 40.734 16.876 40.734 16.256C40.734 15.884 41.0027 15.698 41.54 15.698C41.7053 15.698 41.912 15.7393 42.16 15.822C42.4493 15.8633 42.656 15.884 42.78 15.884C43.648 15.884 44.4127 15.4293 45.074 14.52C45.7353 13.6107 46.066 12.7013 46.066 11.792C46.066 10.4693 45.4253 9.51866 44.144 8.94C42.904 8.36133 41.4987 8.072 39.928 8.072C36.0013 8.072 32.1573 9.33266 28.396 11.854C24.428 14.458 22.444 17.3927 22.444 20.658C22.444 21.8567 22.8573 22.9727 23.684 24.006C25.1307 23.5513 26.474 23.2413 27.714 23.076C28.9953 22.8693 30.2147 22.766 31.372 22.766C35.34 22.766 37.324 23.5307 37.324 25.06C37.324 25.7627 37.0347 26.3827 36.456 26.92C35.8773 27.416 35.1333 27.8087 34.224 28.098C33.356 28.346 32.4673 28.47 31.558 28.47C30.6073 28.47 29.5533 28.346 28.396 28.098C27.2387 27.85 26.1227 27.5193 25.048 27.106C23.9733 26.6927 23.064 26.2173 22.32 25.68C18.4347 26.796 14.9833 28.532 11.966 30.888C8.99 33.2027 6.77867 35.8067 5.332 38.7C4.54667 40.2707 4.154 41.8 4.154 43.288C4.154 45.1067 4.67067 46.5947 5.704 47.752C6.73733 48.9093 8.10133 49.7567 9.796 50.294C11.532 50.8313 13.4333 51.1 15.5 51.1C18.9307 51.1 22.3407 50.542 25.73 49.426C29.1193 48.3513 32.0127 46.7393 34.41 44.59C37.6753 41.6967 39.308 38.6587 39.308 35.476C39.308 32.9547 38.0887 31.694 35.65 31.694C34.3687 31.694 32.9427 32.0247 31.372 32.686C29.8013 33.306 28.3133 34.1533 26.908 35.228C25.544 36.3027 24.4073 37.4807 23.498 38.762C22.5887 40.0433 22.134 41.3453 22.134 42.668C22.134 43.9907 22.7127 44.7967 23.87 45.086C24.2833 45.2513 24.49 45.458 24.49 45.706C24.49 46.0367 24.18 46.202 23.56 46.202C21.3693 46.202 20.274 44.9827 20.274 42.544C20.274 40.932 20.7493 39.4027 21.7 37.956C22.6507 36.5093 23.87 35.228 25.358 34.112C26.8873 32.996 28.5407 32.128 30.318 31.508C32.0953 30.8467 33.8107 30.516 35.464 30.516C37.4067 30.516 38.9153 30.95 39.99 31.818C41.0647 32.6447 41.602 34.0087 41.602 35.91C41.602 39.754 39.4733 43.3707 35.216 46.76C32.5293 48.9507 29.5533 50.5213 26.288 51.472C23.0227 52.464 19.5507 52.96 15.872 52.96ZM31 27.106C33.232 27.106 34.348 26.4653 34.348 25.184C34.348 24.6053 33.232 24.316 31 24.316C30.008 24.316 28.9747 24.378 27.9 24.502C26.8667 24.626 25.8127 24.7913 24.738 24.998C26.5153 26.4033 28.6027 27.106 31 27.106ZM57.4992 48.124C56.5072 48.124 56.0112 47.566 56.0112 46.45C56.4659 44.1353 57.3959 41.5313 58.8012 38.638C59.4625 37.2327 60.1239 35.848 60.7852 34.484C61.4879 33.12 62.1699 31.7353 62.8312 30.33C61.3019 31.3633 59.7725 32.5207 58.2432 33.802C56.7139 35.042 55.2259 36.4473 53.7792 38.018C52.0845 39.8367 50.1212 42.172 47.8892 45.024C46.2772 47.0493 45.3472 48.062 45.0992 48.062C44.5205 48.062 44.0452 47.7933 43.6732 47.256C43.3012 46.7187 43.1152 46.264 43.1152 45.892C43.1152 45.3547 43.5905 43.97 44.5412 41.738C44.8305 41.0353 45.1199 40.3533 45.4092 39.692C45.7399 38.9893 46.0499 38.3073 46.3392 37.646L42.6192 41.552C42.5365 41.6347 42.2885 41.8827 41.8752 42.296C41.4619 42.7093 41.1312 42.916 40.8832 42.916C40.6765 42.916 40.5732 42.7713 40.5732 42.482C40.5732 42.3993 40.6145 42.296 40.6972 42.172C40.7385 42.0067 40.8625 41.8207 41.0692 41.614C41.6892 40.994 42.3299 40.3327 42.9912 39.63C43.6525 38.9273 44.3345 38.1213 45.0372 37.212C45.5745 36.5093 46.3392 35.476 47.3312 34.112C48.3645 32.7067 49.6252 30.95 51.1132 28.842C51.5679 28.222 52.2085 27.912 53.0352 27.912C53.8619 27.912 54.2752 28.3047 54.2752 29.09C54.2752 29.3793 53.2212 31.3013 51.1132 34.856C50.0385 36.7573 49.1705 38.3073 48.5092 39.506C47.8892 40.7047 47.4965 41.5933 47.3312 42.172C48.2405 41.18 49.3152 40.064 50.5552 38.824C51.8365 37.584 53.3039 36.1993 54.9572 34.67C60.0412 29.958 63.3892 27.602 65.0012 27.602C65.4559 27.602 65.8899 27.7467 66.3032 28.036C66.7579 28.3253 66.9852 28.6973 66.9852 29.152C66.9852 29.3587 66.1792 30.8673 64.5672 33.678C62.9965 36.53 62.1285 38.2247 61.9632 38.762C66.5512 34.918 68.8452 32.9753 68.8452 32.934C72.7305 29.9167 75.5205 28.408 77.2152 28.408C77.7112 28.408 78.1659 28.5733 78.5792 28.904C79.0339 29.1933 79.2612 29.5447 79.2612 29.958C79.2612 30.0407 77.9385 31.7767 75.2932 35.166C72.5652 38.5967 71.0359 41.4073 70.7052 43.598C70.5399 45.086 71.3045 45.83 72.9992 45.83C74.0325 45.83 75.4792 45.1687 77.3392 43.846C79.1992 42.5233 81.1419 40.7047 83.1672 38.39C83.4152 38.1007 83.6839 37.832 83.9732 37.584C84.2625 37.2947 84.5105 37.15 84.7172 37.15C84.9652 37.15 85.0892 37.2533 85.0892 37.46C85.0892 37.7493 84.9032 38.08 84.5312 38.452C83.4565 39.7333 82.1752 41.056 80.6872 42.42C79.2405 43.784 77.7939 44.9413 76.3472 45.892C74.9005 46.8013 73.6192 47.256 72.5032 47.256C69.6925 47.256 68.2872 45.954 68.2872 43.35C68.2872 42.4407 68.5352 41.3867 69.0312 40.188C69.5272 38.948 70.0232 37.832 70.5192 36.84C71.7179 34.5253 73.0199 32.4793 74.4252 30.702C73.1025 31.3633 71.7179 32.2313 70.2712 33.306C68.8659 34.3807 67.3985 35.6413 65.8692 37.088C62.3145 40.56 59.8759 44.0733 58.5532 47.628C58.3465 47.9587 57.9952 48.124 57.4992 48.124ZM95.6825 26.672C94.9798 26.672 94.3598 26.4447 93.8225 25.99C93.3265 25.5353 93.0785 25.0187 93.0785 24.44C93.0785 23.2827 93.8638 22.704 95.4345 22.704C96.0131 22.704 96.5918 22.9107 97.1705 23.324C97.7491 23.696 98.0385 24.1713 98.0385 24.75C98.0385 25.246 97.7698 25.7007 97.2325 26.114C96.6951 26.486 96.1785 26.672 95.6825 26.672ZM84.2125 48.682C83.3031 48.682 82.5591 48.3927 81.9805 47.814C81.3605 47.194 81.0505 46.1193 81.0505 44.59C81.0505 43.722 81.2571 42.73 81.6705 41.614C82.0425 40.4567 82.5178 39.2993 83.0965 38.142C83.7165 36.9847 84.3158 35.9513 84.8945 35.042C87.2091 31.2807 89.1105 29.3793 90.5985 29.338C90.9705 29.338 91.4251 29.5033 91.9625 29.834C92.4998 30.1233 92.7685 30.454 92.7685 30.826C92.7685 30.826 91.1978 32.8513 88.0565 36.902C84.9565 40.9113 83.4065 43.7633 83.4065 45.458C83.4065 46.7807 83.9231 47.442 84.9565 47.442C85.6178 47.442 86.4651 47.1733 87.4985 46.636C88.5731 46.0573 89.6891 45.334 90.8465 44.466C92.0038 43.598 93.0991 42.668 94.1325 41.676C95.2071 40.684 96.0751 39.7747 96.7365 38.948C97.1498 38.4107 97.5011 38.0387 97.7905 37.832C98.1211 37.6253 98.3278 37.522 98.4105 37.522C98.5758 37.522 98.6585 37.646 98.6585 37.894C98.6585 38.1007 98.4105 38.514 97.9145 39.134C97.4598 39.754 96.8191 40.4773 95.9925 41.304C95.0005 42.296 93.9051 43.3707 92.7065 44.528C91.5078 45.6853 90.2058 46.6773 88.8005 47.504C87.3951 48.2893 85.8658 48.682 84.2125 48.682ZM100.679 48.124C99.4801 48.124 98.3641 47.8347 97.3308 47.256C96.2975 46.636 95.7808 45.6233 95.7808 44.218C95.7808 42.2753 96.4628 39.9607 97.8268 37.274C99.2321 34.5873 100.823 31.7973 102.601 28.904C107.437 21.0507 110.867 17.124 112.893 17.124C113.306 17.124 113.719 17.2893 114.133 17.62C114.587 17.9093 114.835 18.24 114.877 18.612L110.537 24.44C108.842 26.7133 107.313 28.8213 105.949 30.764C104.585 32.6653 103.407 34.3807 102.415 35.91C101.919 36.6953 101.361 37.584 100.741 38.576C100.121 39.568 99.5628 40.6013 99.0668 41.676C98.6121 42.7093 98.3848 43.7633 98.3848 44.838C98.3848 45.334 98.5295 45.7887 98.8188 46.202C99.1081 46.574 99.6248 46.76 100.369 46.76C101.691 46.76 103.427 46.0573 105.577 44.652C107.726 43.2053 109.855 41.2213 111.963 38.7C112.169 38.452 112.397 38.2247 112.645 38.018C112.893 37.8113 113.099 37.708 113.265 37.708C113.471 37.708 113.575 37.832 113.575 38.08C113.575 38.204 113.43 38.452 113.141 38.824C112.893 39.1547 112.686 39.4233 112.521 39.63L111.033 41.304C110.206 42.2133 109.214 43.2053 108.057 44.28C106.941 45.3547 105.742 46.264 104.461 47.008C103.221 47.752 101.96 48.124 100.679 48.124ZM115.755 48.124C114.556 48.124 113.44 47.8347 112.407 47.256C111.374 46.636 110.857 45.6233 110.857 44.218C110.857 42.2753 111.539 39.9607 112.903 37.274C114.308 34.5873 115.9 31.7973 117.677 28.904C122.513 21.0507 125.944 17.124 127.969 17.124C128.382 17.124 128.796 17.2893 129.209 17.62C129.664 17.9093 129.912 18.24 129.953 18.612L125.613 24.44C123.918 26.7133 122.389 28.8213 121.025 30.764C119.661 32.6653 118.483 34.3807 117.491 35.91C116.995 36.6953 116.437 37.584 115.817 38.576C115.197 39.568 114.639 40.6013 114.143 41.676C113.688 42.7093 113.461 43.7633 113.461 44.838C113.461 45.334 113.606 45.7887 113.895 46.202C114.184 46.574 114.701 46.76 115.445 46.76C116.768 46.76 118.504 46.0573 120.653 44.652C122.802 43.2053 124.931 41.2213 127.039 38.7C127.246 38.452 127.473 38.2247 127.721 38.018C127.969 37.8113 128.176 37.708 128.341 37.708C128.548 37.708 128.651 37.832 128.651 38.08C128.651 38.204 128.506 38.452 128.217 38.824C127.969 39.1547 127.762 39.4233 127.597 39.63L126.109 41.304C125.282 42.2133 124.29 43.2053 123.133 44.28C122.017 45.3547 120.818 46.264 119.537 47.008C118.297 47.752 117.036 48.124 115.755 48.124ZM127.545 60.71C126.222 60.71 125.065 60.152 124.073 59.036C123.081 57.8787 122.606 56.5973 122.647 55.192C123.143 55.812 123.804 56.5353 124.631 57.362C125.706 58.3953 126.76 58.912 127.793 58.912C130.149 58.912 132.691 57.0313 135.419 53.27C136.37 51.9473 137.341 50.3973 138.333 48.62C139.366 46.884 140.338 44.9413 141.247 42.792L143.603 37.088L134.489 44.218C131.678 46.4087 129.426 47.504 127.731 47.504C126.822 47.504 126.098 47.1733 125.561 46.512C125.024 45.8507 124.755 45.1687 124.755 44.466C124.755 42.6887 126.284 39.7747 129.343 35.724C132.402 31.632 134.696 29.586 136.225 29.586C137.506 29.586 138.147 30.0613 138.147 31.012C138.147 31.384 136.308 33.5333 132.629 37.46C128.992 41.3453 127.173 43.97 127.173 45.334C127.173 45.8713 127.524 46.14 128.227 46.14C129.55 46.14 132.422 44.4247 136.845 40.994C138.664 39.5473 140.276 38.2247 141.681 37.026C143.086 35.8273 144.264 34.7527 145.215 33.802C145.546 33.3887 145.876 32.996 146.207 32.624C146.538 32.2107 146.848 31.7973 147.137 31.384C147.922 30.4747 148.708 30.02 149.493 30.02C150.609 30.02 151.167 30.4747 151.167 31.384C151.167 31.5493 150.299 32.9133 148.563 35.476C147.654 36.8813 146.93 37.9767 146.393 38.762C145.856 39.506 145.546 39.9813 145.463 40.188C144.182 42.668 142.218 46.2847 139.573 51.038C135.564 57.486 131.554 60.71 127.545 60.71ZM84.6431 128.308C82.4111 128.308 80.4064 127.874 78.6291 127.006C76.8931 126.138 75.5084 124.919 74.4751 123.348C73.4417 121.777 72.9251 119.938 72.9251 117.83C72.9251 117.582 72.9251 117.355 72.9251 117.148C72.9251 116.9 72.9457 116.652 72.9871 116.404C71.0031 116.197 69.1844 115.784 67.5311 115.164C65.9191 114.544 64.6377 113.697 63.6871 112.622C62.7364 111.506 62.2611 110.142 62.2611 108.53C62.2611 107.042 62.7157 105.637 63.6251 104.314C64.5344 102.95 65.6711 101.689 67.0351 100.532C68.4404 99.3333 69.9077 98.3 71.4371 97.432C74.2891 95.696 77.0791 94.394 79.8071 93.526C79.2697 92.8647 78.8357 92.1 78.5051 91.232C78.2157 90.3227 78.0711 89.4547 78.0711 88.628C78.0711 87.14 78.6084 85.8173 79.6831 84.66C80.7991 83.4613 82.2251 82.4487 83.9611 81.622C85.6971 80.7953 87.5364 80.1547 89.4791 79.7C91.4217 79.2453 93.2197 79.018 94.8731 79.018C99.2544 79.018 101.445 80.3613 101.445 83.048C101.445 84.288 100.97 85.3627 100.019 86.272C99.0684 87.1813 98.0144 87.636 96.8571 87.636C95.7411 87.636 95.1831 87.3467 95.1831 86.768C95.1831 86.3547 95.4517 86.148 95.9891 86.148C96.1544 86.148 96.3611 86.1893 96.6091 86.272C96.6917 86.3133 96.8364 86.334 97.0431 86.334C97.5804 86.334 98.0971 86.024 98.5931 85.404C99.2544 84.6187 99.5851 83.8747 99.5851 83.172C99.5851 82.056 98.9444 81.25 97.6631 80.754C96.8364 80.4647 95.7824 80.32 94.5011 80.32C92.8477 80.32 91.1944 80.6093 89.5411 81.188C87.9291 81.7253 86.4411 82.49 85.0771 83.482C83.7544 84.4327 82.6797 85.528 81.8531 86.768C81.0264 88.008 80.6131 89.3307 80.6131 90.736C80.6131 91.728 80.8611 92.5133 81.3571 93.092C82.9277 92.6373 84.3124 92.41 85.5111 92.41C87.9084 92.41 89.1071 92.8853 89.1071 93.836C89.1071 94.3733 88.7557 94.8487 88.0531 95.262C87.3504 95.634 86.5857 95.82 85.7591 95.82C83.6924 95.82 81.9357 95.2827 80.4891 94.208C79.3317 94.5387 78.1124 95.0553 76.8311 95.758C75.5497 96.4607 74.2064 97.3287 72.8011 98.362C70.8997 99.7673 69.2464 101.338 67.8411 103.074C66.4357 104.769 65.7331 106.587 65.7331 108.53C65.7331 112.209 68.2337 114.255 73.2351 114.668C73.6897 111.733 74.6611 109.088 76.1491 106.732C77.6784 104.376 79.6831 102.433 82.1631 100.904C83.5684 100.036 85.1597 99.354 86.9371 98.858C88.7557 98.3207 90.5744 97.9073 92.3931 97.618C94.2531 97.2873 95.9477 96.998 97.4771 96.75C99.5024 96.4193 101.135 96.0473 102.375 95.634C103.615 95.2207 104.545 94.7867 105.165 94.332C105.62 94.0013 105.95 93.6293 106.157 93.216C106.405 92.8027 106.529 92.4307 106.529 92.1C106.529 91.852 106.488 91.6247 106.405 91.418C106.322 91.17 106.426 91.046 106.715 91.046C107.004 91.046 107.232 91.232 107.397 91.604C107.562 91.976 107.645 92.3273 107.645 92.658C107.645 93.4847 107.232 94.3733 106.405 95.324C105.496 96.2333 104.4 96.9153 103.119 97.37C101.838 97.8247 100.494 98.176 99.0891 98.424C97.6837 98.672 96.2991 98.9613 94.9351 99.292C95.7204 100.036 96.1131 101.152 96.1131 102.64C96.1131 105.699 94.3771 108.633 90.9051 111.444C88.5077 113.345 85.9451 114.668 83.2171 115.412C80.5304 116.115 77.6371 116.466 74.5371 116.466C74.4957 116.714 74.4544 116.983 74.4131 117.272C74.4131 117.52 74.4131 117.768 74.4131 118.016C74.4131 120.785 75.3431 123.038 77.2031 124.774C79.1044 126.51 81.5844 127.378 84.6431 127.378C85.6764 127.378 86.5651 127.027 87.3091 126.324C88.0531 125.663 88.4251 124.898 88.4251 124.03C88.4251 123.741 88.3631 123.451 88.2391 123.162C88.1977 123.079 88.1771 122.976 88.1771 122.852C88.1771 122.604 88.3424 122.48 88.6731 122.48C89.1277 122.48 89.3551 123.017 89.3551 124.092C89.3551 125.208 88.8797 126.179 87.9291 127.006C86.9784 127.874 85.8831 128.308 84.6431 128.308ZM85.4491 94.828C86.4824 94.828 87.0817 94.58 87.2471 94.084C87.2884 93.6707 86.6891 93.464 85.4491 93.464C84.4571 93.464 83.3411 93.588 82.1011 93.836C83.1344 94.4973 84.2504 94.828 85.4491 94.828ZM74.7231 114.73C77.4097 114.73 80.1584 114.296 82.9691 113.428C85.8211 112.56 88.2184 111.237 90.1611 109.46C92.7651 107.104 94.0671 104.686 94.0671 102.206C94.0671 100.387 93.2817 99.478 91.7111 99.478C91.2564 99.478 90.2437 99.664 88.6731 100.036C80.6957 103.012 76.0457 107.91 74.7231 114.73Z" fill="#613F2A"/>
</svg>
